# xmcd CD database file
#
# Track frame offsets:
#	150
#	20494
#	42871
#	60732
#	78591
#	101529
#	131698
#	157527
#	183803
#	200832
#	222146
#
# Disc length: 3293 seconds
#
# Revision: 0
# Processed by: cddbd v1.5.2PL0 Copyright (c) Steve Scherf et al.
# Submitted via: CDex 1.51
#
DISCID=8c0cdb0b
DTITLE=Diana Krall - The Look Of Love
DYEAR=2001
DGENRE=Jazz
TTITLE0=S'Wonderful
TTITLE1=Love Letters
TTITLE2=I Remember You
TTITLE3=Cry Me A River
TTITLE4=Besame Mucho
TTITLE5=The Night We Called It A Day
TTITLE6=Dancing In The Dark
TTITLE7=I Get Along Without You Very Well
TTITLE8=The Look Of Love
TTITLE9=Maybe You'll Be There
TTITLE10=Why Should I care (Bonus Track)
EXTD=YEAR: 2001
EXTT0=
EXTT1=
EXTT2=
EXTT3=
EXTT4=
EXTT5=
EXTT6=
EXTT7=
EXTT8=
EXTT9=
EXTT10=
PLAYORDER=
